# xmcd CD database file
#
# Track frame offsets:
#	150
#	13816
#	25023
#	38584
#	74430
#	86332
#	99920
#	123979
#	136228
#	145312
#	160006
#	193159
#	203302
#	229103
#	255439
#	266969
#	279901
#	299136
#
# Disc length: 4131 seconds
#
# Revision: 1
# Processed by: cddbd v1.5.2PL0 Copyright (c) Steve Scherf et al.
# Submitted via: CDex 1.82
#
DISCID=f9102112
DTITLE=Various Artist - The Very best of Latin Jazz Disc 3
DYEAR=2014
DGENRE=Jazz
TTITLE0=Os Cariocas - Garoto de Ipanema
TTITLE1=Sergio Mendes -  Oba-la-la
TTITLE2=Jack Costanzo - Latin Fever
TTITLE3=Mongo SantaMaria - Bluchanga
TTITLE4=Celia Cruz - Yemaya
TTITLE5=Dave Barbour and his orchestra - Mambo Jambo
TTITLE6=Eddie Lockjaw Davis - Guanco Lament
TTITLE7=Cal Tjader - Mambo in Miami
TTITLE8=Joao Gilberto - O Pato
TTITLE9=Herbie Mann - Right Now
TTITLE10=Dizzy Gillespie - Caravan
TTITLE11=Perez Prado (the Jays) - Quiza Quizas Quizas
TTITLE12=The Dan Elliot Octet - Push de button
TTITLE13=Stan Getz and Charlie byrd - Desafinado
TTITLE14=Quincy Jones - On the street where you Live
TTITLE15=Ray Barretto - El Paso
TTITLE16=Art Pepper - Mambo de la Pinta
TTITLE17=Candido - JaDa
EXTD=YEAR: 2014
EXTT0=
EXTT1=
EXTT2=
EXTT3=
EXTT4=
EXTT5=
EXTT6=
EXTT7=
EXTT8=
EXTT9=
EXTT10=
EXTT11=
EXTT12=
EXTT13=
EXTT14=
EXTT15=
EXTT16=
EXTT17=
PLAYORDER=
